<?xml version="1.0" encoding="UTF-8" standalone="no"?>
<!-- Created with Inkscape (http://www.inkscape.org/) -->

<svg
   xmlns:dc="http://purl.org/dc/elements/1.1/"
   xmlns:cc="http://creativecommons.org/ns#"
   xmlns:rdf="http://www.w3.org/1999/02/22-rdf-syntax-ns#"
   xmlns:svg="http://www.w3.org/2000/svg"
   xmlns="http://www.w3.org/2000/svg"
   xmlns:sodipodi="http://sodipodi.sourceforge.net/DTD/sodipodi-0.dtd"
   xmlns:inkscape="http://www.inkscape.org/namespaces/inkscape"
   width="400"
   height="400"
   id="svg3471"
   version="1.1"
   inkscape:version="0.48.5 r10040"
   sodipodi:docname="Documento nuevo 7">
  <defs
     id="defs3473" />
  <sodipodi:namedview
     id="base"
     pagecolor="#ffffff"
     bordercolor="#666666"
     borderopacity="1.0"
     inkscape:pageopacity="0.0"
     inkscape:pageshadow="2"
     inkscape:zoom="0.24748737"
     inkscape:cx="580.50639"
     inkscape:cy="171.20759"
     inkscape:document-units="px"
     inkscape:current-layer="layer1"
     showgrid="false"
     inkscape:window-width="1360"
     inkscape:window-height="692"
     inkscape:window-x="0"
     inkscape:window-y="25"
     inkscape:window-maximized="1" />
  <metadata
     id="metadata3476">
    <rdf:RDF>
      <cc:Work
         rdf:about="">
        <dc:format>image/svg+xml</dc:format>
        <dc:type
           rdf:resource="http://purl.org/dc/dcmitype/StillImage" />
        <dc:title></dc:title>
      </cc:Work>
    </rdf:RDF>
  </metadata>
  <g
     inkscape:label="Capa 1"
     inkscape:groupmode="layer"
     id="layer1"
     transform="translate(0,-652.36218)">
    <g
       id="g3498"
       transform="matrix(1.1593183,0,0,1.1593183,-203.97917,10.072031)">
      <path
         id="path3433"
         d="m 175.94751,554.02398 0,65.50705 81.96359,0 c 37.32067,0 68.196,14.29316 88.21253,37.32989 19.96921,-24.94759 51.00284,-40.98578 87.65598,-40.98578 38.31568,0 61.42527,10.33784 83.62361,29.19144 l -29.49379,35.57941 c -16.42011,-13.68426 -31.01981,-21.59321 -55.65122,-21.59321 -34.05759,0 -61.12292,30.10562 -61.12292,66.29225 l 0,0.60513 c 0,38.92373 26.7613,67.51088 64.46808,67.51088 17.029,0 32.23425,-4.26144 44.09391,-12.77594 l 0,-30.4017 -47.1363,0 0,-40.44597 88.41689,0 0,-155.81345 -345.03036,0 z"
         style="color:#000000;fill:#d70044;fill-opacity:1;fill-rule:nonzero;stroke:none;visibility:visible;display:inline;overflow:visible;enable-background:accumulate"
         inkscape:connector-curvature="0" />
      <path
         id="path3435"
         d="m 221.72657,661.79281 0,128.32307 36.18453,0 c 38.31484,0 64.15735,-25.84502 64.15735,-63.55222 l 0,-0.6135 c 0,-37.70678 -25.84251,-64.15735 -64.15735,-64.15735 l -36.18453,0 z"
         style="color:#000000;fill:#d70044;fill-opacity:1;fill-rule:nonzero;stroke:none;visibility:visible;display:inline;overflow:visible;enable-background:accumulate"
         inkscape:connector-curvature="0" />
      <path
         id="path3437"
         d="m 345.14998,795.77602 c -20.03621,22.56393 -50.50868,36.60959 -87.23888,36.60959 l -81.96359,0 0,66.66873 345.03036,0 0,-93.59419 c -21.51951,17.05665 -50.25072,30.58177 -86.89549,30.58177 -38.0242,0 -69.22031,-15.33255 -88.9324,-40.2659 z"
         style="color:#000000;fill:#6b012e;fill-opacity:1;fill-rule:nonzero;stroke:none;visibility:visible;display:inline;overflow:visible;enable-background:accumulate"
         inkscape:connector-curvature="0" />
    </g>
  </g>
</svg>
